# xmcd
#
# Track frame offsets:
#	150
#	18451
#	34407
#	57614
#	73229
#	104558
#	117700
#	136124
#	151898
#	169762
#	181755
#	198103
#	213796
#	227403
#	252270
#
# Disc length: 3620 seconds
#
# Revision: 0
# Processed by: cddbd v1.5.1PL0 Copyright (c) Steve Scherf et al.
# Submitted via: EasyCDDAExtractor 4.6.9.1
#
DISCID=d20e220f
DTITLE=World Music - Greece-2
DYEAR=1900
DGENRE=
TTITLE0=Vasilis Saleas - Balkan wind
TTITLE1=Dimitris Typaldos Children Choir - Ode to Zeus
TTITLE2=Athens Symphony Orchestra and Goran Bregvic - Elo Hi
TTITLE3=Dimitris Gouzios - Cello Meditation
TTITLE4=Maria Farantouri - Vegetaciones
TTITLE5=Maria Demitriadi - The Gallant Man
TTITLE6=Stravros Pazarentzis - At the Secret Seashore
TTITLE7=Melina kana - When I Sing
TTITLE8=Michalis Nikoloudis - Aegean
TTITLE9=Panagiotis Karadimitris - The Spell
TTITLE10=Melina Mercouri - Love Theme from Phaedra OST
TTITLE11=Markos Vamvakaris - Carmen in Athens
TTITLE12=Vasilis Tsitsanis - In the Cool of the Morning
TTITLE13=Ross Daly and Labyrinth  - Afou' heis Allon Sti Kardia
TTITLE14=Stamatis Kraounakis - The Root
EXTD=
EXTT0=
EXTT1=
EXTT2=
EXTT3=
EXTT4=
EXTT5=
EXTT6=
EXTT7=
EXTT8=
EXTT9=
EXTT10=
EXTT11=
EXTT12=
EXTT13=
EXTT14=
PLAYORDER=
